Coordinates
version=1
nRows=10
nColumns=63
inDegrees=yes

Units are S.I. units (second, meters, Newtons, ...)
If the header above contains a line with 'inDegrees', this indicates whether rotational values are in degrees (yes) or radians (no).

endheader
time	pelvis_tilt	pelvis_list	pelvis_rotation	pelvis_tx	pelvis_ty	pelvis_tz	hip_flexion_r	hip_adduction_r	hip_rotation_r	knee_angle_r	knee_angle_r_beta	ankle_angle_r	subtalar_angle_r	mtp_angle_r	hip_flexion_l	hip_adduction_l	hip_rotation_l	knee_angle_l	knee_angle_l_beta	ankle_angle_l	subtalar_angle_l	mtp_angle_l	L5_S1_Flex_Ext	L5_S1_Lat_Bending	L5_S1_axial_rotation	L4_L5_Flex_Ext	L4_L5_Lat_Bending	L4_L5_axial_rotation	L3_L4_Flex_Ext	L3_L4_Lat_Bending	L3_L4_axial_rotation	L2_L3_Flex_Ext	L2_L3_Lat_Bending	L2_L3_axial_rotation	L1_L2_Flex_Ext	L1_L2_Lat_Bending	L1_L2_axial_rotation	L1_T12_Flex_Ext	L1_T12_Lat_Bending	L1_T12_axial_rotation	Abs_r3	Abs_r2	Abs_r1	Abs_t1	Abs_t2	neck_flexion	neck_bending	neck_rotation	arm_flex_r	arm_add_r	arm_rot_r	elbow_flex_r	pro_sup_r	wrist_flex_r	wrist_dev_r	arm_flex_l	arm_add_l	arm_rot_l	elbow_flex_l	pro_sup_l	wrist_flex_l	wrist_dev_l
     11.41666667	     -1.26554247	     -8.57696314	     81.50734525	      0.11109651	      1.01836400	      0.34980000	     22.85502766	     -1.18954208	    -13.25037773	     29.34288855	      0.51213002	     50.56311652	     18.33011372	      0.00000000	     19.19666663	     -2.65296625	    -10.75608681	     22.29652773	      0.38914782	     49.03486273	     18.62275728	      0.00000000	     -0.32336647	      0.50849433	     -1.44280455	     -0.60052388	      0.67629745	     -1.53297983	     -0.53125878	      1.23635310	     -1.53297983	     -0.36957554	      1.23635310	     -1.26245398	     -0.30027811	      1.03692163	     -1.17227869	     -0.18477160	      0.78765771	     -1.08210341	     -2.30977439	      5.75218951	     -8.02444604	      0.00000000	      0.00000000	     -8.08385671	     -3.14244614	      3.10797884	      9.24690815	    -19.94459923	   -365.29754630	     75.07741678	     77.17218734	     -0.04221199	     -3.65792397	     20.46166660	     -9.12966411	     30.74288333	     79.72465630	     88.35599136	     -4.56772260	      1.55071317
     11.43333333	     -1.42930850	     -8.60156588	     81.04991439	      0.11129382	      1.01909442	      0.34881314	     22.65648190	     -1.21347935	    -13.31280641	     29.09238099	      0.50775784	     50.31233063	     18.44359713	      0.00000000	     18.45310003	     -2.40712705	    -10.61723709	     20.98382826	      0.36623689	     48.63773886	     18.48192972	      0.00000000	     -0.29980542	      0.51950879	     -1.41520747	     -0.55676865	      0.69094669	     -1.50365794	     -0.49255033	      1.26313368	     -1.50365794	     -0.34264762	      1.26313368	     -1.23830654	     -0.27839932	      1.05938233	     -1.14985607	     -0.17130882	      0.80471912	     -1.06140560	     -2.14148016	      5.87678737	     -7.87095938	      0.00000000	      0.00000000	     -8.01786658	     -4.02752652	      3.31521810	      9.75478522	    -20.60311851	   -365.78085390	     76.26400495	     78.40149971	     -0.54425223	     -4.32980622	     21.54881566	     -7.92495616	     30.60498651	     79.72320979	     88.36301949	     -3.92892275	      2.38430180
     11.45000000	     -1.64141176	     -8.64721301	     80.91592890	      0.11163821	      1.02011006	      0.34816411	     22.38360684	     -1.36382615	    -13.65916017	     28.61803869	      0.49947900	     49.87266149	     18.45947554	      0.00000000	     18.06179629	     -2.10232912	    -10.25351798	     20.07851782	      0.35043624	     48.19155432	     18.39997183	      0.00000000	     -0.27706026	      0.50354599	     -1.47216119	     -0.51452861	      0.66971616	     -1.56417126	     -0.45518230	      1.22432171	     -1.56417126	     -0.31665217	      1.22432171	     -1.28814104	     -0.25727816	      1.02683097	     -1.19613096	     -0.15831223	      0.77999273	     -1.10412089	     -1.97901374	      5.69621290	     -8.18771886	      0.00000000	      0.00000000	     -8.00080548	     -4.31603992	      3.41365376	     10.26720236	    -20.78957479	   -366.44835072	     77.64678377	     81.89678028	     -1.96744738	     -3.91339377	     22.62742541	     -6.88582655	     30.07356867	     79.37081248	     88.39795206	     -1.34026206	      3.76331493
     11.46666667	     -1.93995154	     -8.74005827	     80.74783498	      0.11196406	      1.02127506	      0.34738306	     22.15500321	     -1.61394183	    -14.03812227	     28.09829602	      0.49040778	     49.33326864	     18.39881941	      0.00000000	     17.69531314	     -1.70925409	    -10.00841450	     19.04203172	      0.33234615	     47.68603488	     18.49820442	      0.00000000	     -0.23762768	      0.47905548	     -1.55880067	     -0.44129837	      0.63714379	     -1.65622571	     -0.39039852	      1.16477549	     -1.65622571	     -0.27158468	      1.16477549	     -1.36395059	     -0.22066107	      0.97688993	     -1.26652554	     -0.13578046	      0.74205694	     -1.16910050	     -1.69735078	      5.41917139	     -8.66958169	      0.00000000	      0.00000000	     -8.11210614	     -4.48613184	      3.87142538	     10.60505952	    -20.89673597	   -366.82738390	     78.96711717	     81.80296798	     -2.15870745	     -3.51896250	     23.70359515	     -6.33154328	     30.37813035	     78.77275901	     88.33039575	     -1.02914430	      4.17016392
     11.48333333	     -2.24055373	     -8.51725588	     80.86948237	      0.11208354	      1.02289968	      0.34608592	     21.45964238	     -2.05157519	    -14.87230525	     27.46288088	      0.47931769	     48.92652294	     18.49579579	      0.00000000	     16.88179832	     -1.11030313	     -9.01733791	     17.76040660	      0.30997757	     47.08192204	     18.24032255	      0.00000000	     -0.23426410	      0.43221464	     -1.64488877	     -0.43505186	      0.57484547	     -1.74769432	     -0.38487249	      1.05088668	     -1.74769432	     -0.26774044	      1.05088668	     -1.43927768	     -0.21753764	      0.88137209	     -1.33647213	     -0.13385851	      0.66950048	     -1.23366658	     -1.67332504	      4.88929846	     -9.14837788	      0.00000000	      0.00000000	     -8.57174717	     -4.22210453	      3.46034083	     10.06989623	    -20.81572306	   -367.90796275	     81.16801537	     80.79063475	     -2.98773342	     -0.87507184	     25.03879016	     -5.89550668	     31.12676242	     77.76724131	     87.88916121	     -0.11637339	      4.98313085
     11.50000000	     -2.45721009	     -8.42905444	     80.82254721	      0.11251731	      1.02417826	      0.34509298	     20.89696921	     -2.26651190	    -15.44530882	     26.75160539	      0.46690359	     48.49129663	     18.53442243	      0.00000000	     16.19998471	     -0.73532392	     -8.39752293	     16.64349285	      0.29048375	     46.45674867	     18.10936262	      0.00000000	     -0.20597064	      0.39295690	     -1.71152247	     -0.38250808	      0.52263267	     -1.81849263	     -0.33838917	      0.95543540	     -1.81849263	     -0.23540385	      0.95543540	     -1.49758216	     -0.19126434	      0.80131771	     -1.39061201	     -0.11769163	      0.60869023	     -1.28364185	     -1.47122771	      4.44520702	     -9.51897454	      0.00000000	      0.00000000	     -9.24607513	     -3.74337808	      3.05017036	      9.28691768	    -20.84787789	   -368.72036137	     83.00520212	     79.99901437	     -3.15854475	      0.45105550	     26.25883860	     -5.58668760	     31.98844701	     76.74252658	     86.58377633	     -0.32891614	      5.80303690
     11.51666667	     -2.73372816	     -8.30620671	     80.73041598	      0.11309154	      1.02490998	      0.34462915	     20.44303622	     -2.51457863	    -15.78996584	     26.25826638	      0.45829320	     48.26676802	     18.57502268	      0.00000000	     15.62176997	     -0.35889477	     -7.84844863	     15.91072465	      0.27769453	     45.94141199	     17.80556917	      0.00000000	     -0.18253437	      0.33359399	     -1.69575769	     -0.33898458	      0.44368000	     -1.80174255	     -0.29988571	      0.81110042	     -1.80174255	     -0.20861853	      0.81110042	     -1.48378798	     -0.16950141	      0.68026486	     -1.37780312	     -0.10430014	      0.51673709	     -1.27181827	     -1.30382474	      3.77368191	     -9.43129555	      0.00000000	      0.00000000	     -9.91047189	     -2.93252802	      1.62796443	      7.83177076	    -21.02572401	   -369.86472174	     84.98546116	     79.15788868	     -2.71611041	      1.46102783	     27.96045146	     -5.40452259	     33.95536714	     75.54781366	     82.44103114	     -2.00482160	      6.39729741
     11.53333333	     -2.96893750	     -8.15975384	     80.58044779	      0.11388180	      1.02539293	      0.34445150	     19.98165447	     -2.63235209	    -15.74314584	     25.72050735	      0.44890754	     48.17313344	     18.62400459	      0.00000000	     15.01868968	     -0.09176739	     -7.54230310	     15.26307358	      0.26639089	     45.46063105	     17.58446387	      0.00000000	     -0.16467066	      0.27883574	     -1.66377554	     -0.30580989	      0.37085153	     -1.76776151	     -0.27053743	      0.67796121	     -1.76776151	     -0.18820210	      0.67796121	     -1.45580360	     -0.15291318	      0.56860184	     -1.35181763	     -0.09409282	      0.43191656	     -1.24783166	     -1.17622609	      3.15424563	     -9.25342043	      0.00000000	      0.00000000	    -10.71190589	     -2.08988964	      0.15820074	      6.22568318	    -21.36273296	   -370.62150813	     86.35404563	     79.65417378	     -1.56225417	      0.28155862	     29.64196453	     -5.28002548	     36.08936849	     74.48521715	     75.86563047	     -4.27100397	      6.33734095
     11.55000000	     -3.20183257	     -8.07115198	     80.32491424	      0.11486373	      1.02560112	      0.34449871	     19.65312594	     -2.66028805	    -15.32259867	     25.23115313	      0.44036670	     48.20940782	     18.66476452	      0.00000000	     14.53311694	      0.09952429	     -7.57371007	     14.73046334	      0.25709509	     45.13352785	     17.35062790	      0.00000000	     -0.14351091	      0.22884971	     -1.61823685	     -0.26651411	      0.30437011	     -1.71937666	     -0.23577408	      0.55642518	     -1.71937666	     -0.16401862	      0.55642518	     -1.41595725	     -0.13326423	      0.46667033	     -1.31481744	     -0.08200213	      0.35448820	     -1.21367764	     -1.02508408	      2.58879369	     -9.00014791	      0.00000000	      0.00000000	    -11.47828011	     -1.30608013	     -1.25449242	      4.63463246	    -21.77086346	   -370.96156422	     87.15322953	     81.37899193	     -0.12000231	     -1.89822983	     31.02655733	     -5.02424845	     37.66180329	     73.61674356	     70.12176726	     -6.24931037	      5.44341172
     11.56666667	     -3.24497472	     -8.06044256	     80.04946120	      0.11561604	      1.02584083	      0.34449786	     19.30908589	     -2.43973685	    -14.68387207	     24.53676662	      0.42824737	     48.21876569	     18.72672711	      0.00000000	     14.16972878	      0.07392512	     -7.77363944	     14.28682404	      0.24935212	     44.96014630	     17.15949006	      0.00000000	     -0.12735086	      0.21515924	     -1.57744449	     -0.23650329	      0.28616178	     -1.67603477	     -0.20922473	      0.52313816	     -1.67603477	     -0.14554930	      0.52313816	     -1.38026393	     -0.11825801	      0.43875271	     -1.28167365	     -0.07276828	      0.33328166	     -1.18308337	     -0.90965448	      2.43392430	     -8.77327303	      0.00000000	      0.00000000	    -12.15020243	     -0.95664625	     -2.46933017	      3.30989367	    -22.39680869	   -370.56986571	     87.45565824	     82.53650561	      0.98166934	     -4.05020168	     31.71192360	     -4.25216407	     37.56342373	     72.89391976	     68.05741031	     -7.01264889	      4.86224866
